REM GENRE Rock
REM DATE 1981
REM DISCID 9B099F0B
REM COMMENT "ExactAudioCopy v0.99pb4"
PERFORMER "Midnight Oil"
TITLE "Place Without A Postcard"
FILE "01. Midnight Oil - Don't Wanna Be The One.wav" WAVE
  TRACK 01 AUDIO
    TITLE "Don't Wanna Be The One"
    PERFORMER "Midnight Oil"
    INDEX 01 00:00:00
FILE "02. Midnight Oil - Brave Faces.wav" WAVE
  TRACK 02 AUDIO
    TITLE "Brave Faces"
    PERFORMER "Midnight Oil"
    INDEX 01 00:00:00
  TRACK 03 AUDIO
    TITLE "Armistice Day"
    PERFORMER "Midnight Oil"
    INDEX 00 04:46:70
FILE "03. Midnight Oil - Armistice Day.wav" WAVE
    INDEX 01 00:00:00
  TRACK 04 AUDIO
    TITLE "Someone Else To Blame"
    PERFORMER "Midnight Oil"
    INDEX 00 04:27:30
FILE "04. Midnight Oil - Someone Else To Blame.wav" WAVE
    INDEX 01 00:00:00
FILE "05. Midnight Oil - Basement Flat.wav" WAVE
  TRACK 05 AUDIO
    TITLE "Basement Flat"
    PERFORMER "Midnight Oil"
    INDEX 01 00:00:00
FILE "06. Midnight Oil - Written In The Heart.wav" WAVE
  TRACK 06 AUDIO
    TITLE "Written In The Heart"
    PERFORMER "Midnight Oil"
    INDEX 01 00:00:00
FILE "07. Midnight Oil - Burnie.wav" WAVE
  TRACK 07 AUDIO
    TITLE "Burnie"
    PERFORMER "Midnight Oil"
    INDEX 01 00:00:00
FILE "08. Midnight Oil - Quinella Holiday.wav" WAVE
  TRACK 08 AUDIO
    TITLE "Quinella Holiday"
    PERFORMER "Midnight Oil"
    INDEX 01 00:00:00
FILE "09. Midnight Oil - Loves On Sale.wav" WAVE
  TRACK 09 AUDIO
    TITLE "Loves On Sale"
    PERFORMER "Midnight Oil"
    INDEX 01 00:00:00
FILE "10. Midnight Oil - If Ned Kelly Was King.wav" WAVE
  TRACK 10 AUDIO
    TITLE "If Ned Kelly Was King"
    PERFORMER "Midnight Oil"
    INDEX 01 00:00:00
  TRACK 11 AUDIO
    TITLE "Lucky Country"
    PERFORMER "Midnight Oil"
    INDEX 00 03:38:18
FILE "11. Midnight Oil - Lucky Country.wav" WAVE
    INDEX 01 00:00:00
